<svg width="55" height="55" xmlns="http://www.w3.org/2000/svg">

 <g>
  <title>background</title>
  <rect fill="none" id="canvas_background" height="57" width="57" y="-1" x="-1"/>
 </g>
 <g>
  <title>Layer 1</title>
  <g id="svg_7">
   <path id="svg_1" d="m13.938919,30.195984l15.898407,-15.634514l-6.65831,0l-15.878983,15.634514l19.95549,19.624908l6.65831,0l-19.974915,-19.624908" fill="#ffffff"/>
   <g id="svg_2" fill="#FFF">
    <path fill="#ffffff" id="svg_3" d="m31.817337,30.195984l6.988312,-6.890526s0.155289,-0.152634 0.213531,-0.218056l0.465897,-0.523331c1.650009,-2.245956 2.581787,-5.080673 2.581787,-8.002609c0,-6.934128 -5.008301,-12.581741 -11.181305,-12.581741l-21.566681,0.021805l-4.309448,4.971642l21.624908,-0.021797l4.251221,0c3.727112,0 6.755371,3.401649 6.755371,7.588295c0,1.78804 -0.524124,3.445267 -1.552948,4.840805c-0.194138,0.283478 -1.611206,1.591805 -1.611206,1.591805l-2.407074,2.311371l-6.91066,6.912338l19.974915,19.624908l6.658295,0l-19.974915,-19.624908zm6.483597,-6.912338l0.038818,0l-0.038818,0z"/>
    <path fill="#ffffff" id="svg_4" d="m52.685211,50.213379l-7.687134,0l-0.097076,-0.087219l-20.266083,-19.908386l7.201843,-7.195801l2.426483,-2.311363c0.679413,-0.632362 1.455902,-1.373749 1.572372,-1.526382c0.970596,-1.308327 1.475311,-2.900131 1.475311,-4.600952c0,-3.96859 -2.872971,-7.217613 -6.425369,-7.217613l-26.691437,0l4.969452,-5.756638l22.479065,0l-0.019409,0.021812c6.0177,0.436104 10.79303,6.061913 10.79303,12.930626c0,2.965546 -0.951172,5.909279 -2.659424,8.24247c-0.097061,0.130829 -0.427063,0.501526 -0.5047,0.56694c-0.058258,0.065414 -0.232956,0.218056 -0.232956,0.218056l-0.097061,0.087219l-6.600067,6.498016l20.363159,20.039215zm-7.434784,-0.763184l5.629456,0l-19.58667,-19.254211l6.619492,-6.519836l-0.427078,0l0.698853,-0.763191l0.194107,0l0,0.32708l0.310593,-0.305275c0.038818,-0.04361 0.077637,-0.087219 0.11647,-0.109032c0.077652,-0.065414 0.36882,-0.414307 0.427078,-0.479713c1.611176,-2.202354 2.50412,-4.971642 2.50412,-7.762741c0,-6.716087 -4.872391,-12.189255 -10.851288,-12.189255l-0.75705,0l-20.673752,-0.021797l-3.649445,4.230255l21.159042,-0.021805l3.901794,0c3.921234,0 7.104782,3.576088 7.104782,7.980789c0,1.875275 -0.562943,3.619705 -1.6306,5.080673c-0.194122,0.283478 -1.417084,1.417351 -1.650024,1.635406l-2.407074,2.311386l-6.619476,6.607056l19.58667,19.254211z"/>
    <path fill="#ffffff" id="svg_5" d="m52.005783,49.908112l-6.891251,0l-0.019409,-0.021805l-20.033142,-19.690323l0.058228,-0.06543l6.910675,-6.912323l2.407074,-2.311378c0.485291,-0.457916 1.455887,-1.351936 1.611206,-1.569992c0.98999,-1.351929 1.533539,-3.009155 1.533539,-4.775398c0,-4.143036 -2.989441,-7.501076 -6.677734,-7.501076l-26.089676,0l4.464767,-5.167892l0.038818,0l21.760803,-0.021797c6.134186,0.109024 11.084229,5.756638 11.084229,12.668961c0,2.900124 -0.931778,5.778442 -2.601196,8.068016c-0.077637,0.109032 -0.407654,0.479729 -0.465881,0.545143c-0.058228,0.065414 -0.213531,0.218048 -0.213531,0.218048l-0.019409,0.021812l-6.891266,6.803307l20.033157,19.712128l0,0zm-6.852417,-0.174438l6.405945,0l-19.877853,-19.537689l7.065948,-6.977753c0.038818,-0.043617 0.135895,-0.130829 0.194122,-0.196251c0.058243,-0.065414 0.388245,-0.414299 0.465881,-0.523323c1.650024,-2.245964 2.562378,-5.080681 2.562378,-7.937195c0,-6.868713 -4.988861,-12.472717 -11.103638,-12.494522l-0.194122,0l-21.353149,0.021805l-4.15416,4.797195l21.547272,-0.021797l4.173569,0c3.76593,0 6.833023,3.445259 6.833023,7.675522c0,1.809853 -0.543533,3.488869 -1.552963,4.884415c-0.194122,0.28347 -1.572357,1.548195 -1.6306,1.591805l-2.407089,2.311378l-6.833008,6.846901l19.858444,19.559509l0,0zm-6.794189,-26.362808l-0.271774,0l0.194122,-0.174438l0.077652,0l0,0.174438z"/>
    <path fill="#ffffff" id="svg_6" d="m52.898743,50.300598l-7.939499,0l-0.097061,-0.087219l-20.343735,-19.99559l0.349411,-0.348892l6.910675,-6.912323l2.426483,-2.311386c0.776474,-0.719574 1.455902,-1.395546 1.552948,-1.526382c0.951202,-1.286514 1.455902,-2.856514 1.455902,-4.53553c0,-3.92498 -2.853561,-7.130386 -6.347717,-7.130386l-26.86615,0l5.124756,-5.931084l22.750824,-0.021805l-0.038818,0.04361c5.940063,0.56694 10.637756,6.214554 10.637756,12.996056c0,2.987343 -0.951202,5.952888 -2.678864,8.307877c-0.097046,0.130829 -0.446472,0.523331 -0.5047,0.588745c-0.058228,0.065414 -0.232941,0.218056 -0.232941,0.218056l-0.097076,0.087227l-6.522415,6.432594l20.46022,20.126434zm-7.609497,-0.937622l5.377106,0l-19.489594,-19.166992l6.522415,-6.43261l-0.601791,0l0.912369,-0.828606l0.019424,-0.566948l0.349411,0.436111l0.271774,0.021805c0.038818,-0.021805 0.058228,-0.065422 0.077637,-0.087219c0.077652,-0.065414 0.368835,-0.414307 0.427063,-0.479721c1.611206,-2.180542 2.484741,-4.928032 2.484741,-7.697327c0,-6.672462 -4.833588,-12.102028 -10.773651,-12.102028l-21.372574,0l-3.494141,4.034012l21.042557,-0.021805l3.824158,0c3.960052,0 7.182434,3.619705 7.182434,8.068016c0,1.897072 -0.562958,3.663315 -1.630615,5.124283c-0.135895,0.196251 -0.679413,0.741386 -1.649994,1.635406l-2.426514,2.354988l-6.54184,6.541641l19.489624,19.166992z"/>
   </g>
  </g>
 </g>
</svg>